<svg version="1" xmlns="http://www.w3.org/2000/svg" width="1365.333" height="1365.333" viewBox="0 0 1024.000000 1024.000000"><path d="M250.3 288.6c-4.3 2.1-7 6.1-12 16.9-7.7 16.7-11.1 24-17.2 36.9-3.3 7-6.1 12.9-6.1 13.1 0 .1-2.3 5.1-5 10.9-2.8 5.9-11.1 23.6-18.4 39.4-7.4 15.8-15.4 33-17.9 38.2-2.4 5.2-5.6 12-6.9 15-2.5 5.4-8.3 17.8-13.8 29.5-3 6.5-21.6 46.2-27.3 58.5-1.9 4.1-8.3 17.8-14.2 30.5-13.3 28.5-15.8 33.9-16 34.5-.1.3-2.1 4.5-4.4 9.5-2.4 4.9-5.5 11.5-6.8 14.5-1.4 3-5.2 11.1-8.4 17.9-3.3 6.8-5.9 12.5-5.9 12.6 0 .2-2.3 5.2-5.1 11.1-19 40.3-18.2 38.3-17.7 44.8.8 9.9 7.4 15.6 17.8 15.6 8.9 0 13-3.4 18.3-15 5.6-12.3 9.2-19.9 14.7-31.5 2.9-6.1 7.5-16 10.2-22 2.8-6.1 7.2-15.5 9.8-21 2.6-5.5 5.8-12.3 7-15 1.2-2.8 4.3-9.3 6.7-14.5 2.5-5.2 7.1-15.1 10.3-22 3.2-6.9 8.3-17.8 11.4-24.4 3.1-6.5 5.6-12 5.6-12.2 0-.2 2.2-4.8 4.9-10.4 2.7-5.5 4.7-10 4.4-10-.3 0-.1-.6.5-1.3.5-.6 4.2-8.2 8.2-16.7 4-8.5 8.9-19.1 11-23.5 2.1-4.4 8.1-17.5 13.5-29 5.4-11.6 11.5-24.7 13.7-29.3 2.1-4.6 6.8-14.7 10.5-22.5 15.3-33.1 19-40.9 24.6-52.8 2.5-5.2 5.2-11.2 6.1-13.2.8-2 1.7-3.7 2.1-3.7.3 0 2 3.3 3.9 7.2 1.8 4 10 21.5 18.1 38.8 8.1 17.3 16 34.2 17.5 37.5 1.5 3.3 4.7 10 7.1 15 2.3 4.9 4.3 9.2 4.4 9.5 0 .3 1.1 2.5 2.2 5 1.2 2.5 5.6 11.9 9.8 21 12.2 26.2 14 29.9 19.4 41.4 2.8 5.9 5.1 11.4 5.1 12 0 .9-12.6 1.2-50.7 1.2-28 0-52 .3-53.5.7-7.2 1.9-13.5 11.8-12.4 19.1 1.2 7.2 6.5 13.8 12.4 15.3 1.5.4 25.8.7 54 .7 28.1 0 51.2.3 51.2.6 0 .4-4.1 9.4-9.1 20.1-5 10.7-10.2 21.9-11.6 24.9-1.4 3-4.2 9.1-6.3 13.5-2.1 4.4-6.7 14.3-10.3 22-3.6 7.7-8.8 18.9-11.6 24.8-2.8 6-5.1 11-5.1 11.2 0 .2-2.7 5.9-5.9 12.8-6.5 13.5-7.6 18.3-5.6 24.1 2.6 7.4 8.3 11.3 17 11.7 9.8.4 12.6-2.8 24-26.9 5.2-11.2 9.5-20.5 9.5-20.7 0-.2 2.7-5.9 5.9-12.7 3.3-6.8 10.5-22.2 16.1-34.3 17.1-36.8 18.1-38.9 19.8-42.4l1.6-3.5 3 6.5c5.1 10.7 11.9 25.2 23.1 49.4 5.9 12.6 13.1 28.1 16.1 34.4 3 6.2 5.4 11.5 5.4 11.7 0 .2 2.9 6.4 6.5 13.9s6.5 13.9 6.5 14.2c0 .4 1.1 2.1 2.4 3.8 6.4 8.3 20.3 9 27.2 1.3 7-7.7 6.4-14.2-3.1-33.6-3.8-7.9-11-23.3-16.7-35.7-2.8-6.1-7.7-16.6-10.9-23.4-3.3-6.8-5.9-12.5-5.9-12.7 0-.1-3.1-6.9-7-15-3.8-8-7-14.8-7-14.9 0-.2-2.1-4.7-4.6-10.1-13.7-28.9-15.2-32.7-14.3-34.3.5-.9 3.2-6.6 6-12.6 8.7-18.7 10.5-22.7 14.9-32 2.3-5 5.5-11.7 7-15 11.1-23.9 18.2-39.3 28.2-60.5 6.6-14 7.5-17.5 5.9-23.2-3.2-11.2-15.8-16.5-25.8-10.8-5 2.8-6.1 4.5-12.1 17.6-2.8 6-7.1 15.4-9.7 20.9-2.6 5.5-6.2 13.1-8 17-1.8 3.8-6.4 13.7-10.2 22-13.9 29.7-15.3 32.7-15.3 33.5 0 .5-.5 1.2-1 1.5-.6.3-1.9-1.3-2.9-3.7-1-2.4-3.8-8.4-6.1-13.3-5.2-11-28.8-61.6-38-81.5-3.7-8-9-19.4-11.9-25.4-2.8-5.9-5.1-11-5.1-11.1 0-.2-3.4-7.3-7.5-16-4.1-8.6-7.5-15.8-7.5-16 0-.2-3.1-7-7-15-3.8-8-7-14.8-7-15 0-.2-2.3-5.1-5-10.9-6.3-13.2-9.3-15.9-18.4-16.3-4.2-.3-7.1.1-9.3 1.3zM503.8 397.3c-15.2 3.9-17.6 25-3.8 32.7l4.5 2.5h95.4c104.1 0 98.9.3 105-5.5 8.7-8.4 5.5-24.5-5.9-29.3-3.1-1.2-190.4-1.6-195.2-.4zM770.8 397.4c-5.1 1.5-8.6 4.4-11.1 9.1l-2.1 4-.1 156c0 92.8.3 157.2.9 159 1.4 4.6 5.1 9 9.2 11 3.4 1.6 10.3 1.7 99.3 1.8 52.6 0 96.7-.4 98.1-.8 4.6-1.4 8.8-5.4 10.5-10 3.4-8.8.1-18.1-7.9-22.6l-3.9-2.2h-84.9c-46.6 0-84.9-.3-84.9-.6-.1-.3-.2-66.1-.3-146.1-.2-139.3-.3-145.7-2-149.3-3.8-7.8-12.6-11.7-20.8-9.3zM504.4 537.3c-10.3 2.1-16.4 14-12.3 24 1.9 4.5 3.8 6.5 8.4 9 4 2.1 4.5 2.1 98 2.1 51.7.1 95.5-.2 97.3-.5 10.8-2.2 17-14.2 12.8-24.4-1.7-4-5.9-8.2-9.6-9.8-2.9-1.2-188.8-1.6-194.6-.4zM506.5 703.1c-4.4.6-7.7 2.1-10.5 4.9-9.2 9.2-5.3 25.8 7 29.5 3.2 1 191.9 1 195.1 0 4.3-1.4 8.1-4.7 10-8.9 4-8.8 1.1-18.6-6.8-23.3l-4.5-2.6-93.1-.1c-51.3-.1-95 .1-97.2.5z"/></svg>